<svg width="58" height="84" viewBox="0 0 58 84" fill="none" xmlns="http://www.w3.org/2000/svg">
    <path
        d="M26.0311 0.285767C25.0871 0.731049 24.4281 1.62161 24.1431 2.77935C23.9828 3.49181 23.8581 3.72335 23.5731 3.77679C23.3594 3.81241 22.166 4.00833 20.8836 4.20425C15.4868 5.0592 11.3011 7.12531 7.59637 10.8122C3.26822 15.1404 0.810262 20.5907 0.115621 27.3946C-0.0981152 29.5319 -0.00905864 33.1833 0.329356 35.2316C0.560903 36.6743 1.21992 39.5597 1.30898 39.4707C1.3446 39.435 1.23773 38.687 1.09524 37.8142C0.721205 35.5344 0.578715 30.9034 0.828073 28.5523C1.57615 21.6059 3.92724 15.9063 7.61418 12.0056C11.3546 8.06931 15.8786 6.19912 21.5961 6.19912C30.1811 6.19912 37.0741 10.5985 43.6465 20.2879C49.9161 29.5676 49.6667 43.0507 43.0409 52.4907C41.3844 54.8596 37.7509 58.3328 37.3591 57.9232C37.2878 57.8341 36.0232 55.3405 34.5983 52.3839L31.9623 47.0048L33.1556 45.1703C33.8146 44.155 35.3642 41.8752 36.611 40.0941C39.4786 35.9796 40.4583 34.2341 41.2419 31.9721C41.7941 30.3513 41.8653 29.9594 41.8653 28.2851C41.8832 26.9137 41.7763 26.0587 41.4913 25.0613C40.4404 21.3031 37.8222 17.349 34.8477 15.0157C34.0996 14.4279 33.779 14.2498 33.8681 14.4814C35.2039 17.919 34.3133 21.5168 31.0895 25.7916C30.003 27.2343 25.2474 32.738 25.0871 32.738C25.0158 32.738 24.054 30.85 22.9497 28.5523C21.1152 24.7585 20.8836 24.3667 20.5452 24.4735C17.731 25.3107 13.8481 27.163 11.3011 28.8729C9.87622 29.8169 9.43094 30.0307 8.62943 30.1197C5.72618 30.4225 3.87381 32.5064 3.87381 35.4809C3.87381 36.1221 3.71351 36.603 3.26822 37.4224C-0.685889 44.4934 -0.29404 54.2362 4.31909 63.8722C7.20452 69.8746 10.9449 73.8643 16.1636 76.5182C17.7488 77.3019 20.6877 78.3349 22.451 78.6912C23.1991 78.8337 23.4663 78.9762 23.4663 79.1899C23.4841 79.6886 24.1609 81.0245 24.8021 81.826C26.1023 83.4112 28.3644 83.9277 30.4839 83.144C31.7663 82.6631 32.461 81.8616 32.7281 80.5792C32.835 80.027 32.8884 79.5105 32.835 79.4214C32.7638 79.3324 33.1734 79.2077 33.7434 79.1365C38.1606 78.6377 41.2063 77.854 44.0383 76.4826C51.056 73.0984 55.8294 66.6151 57.5037 58.2616C58.038 55.5721 58.1627 51.0124 57.7708 48.1091C57.5037 46.0252 56.5953 42.1424 56.2391 41.4833C56.1322 41.2696 56.1322 40.949 56.2569 40.5571C57.0406 37.8498 57.2009 32.9873 56.6131 29.5319C56.2035 27.163 55.2773 23.8858 54.3867 21.6415C53.9058 20.3947 53.7989 19.9673 53.9414 19.611C54.6895 17.6162 52.8549 14.2855 50.6285 13.6264C50.0585 13.4661 49.6667 13.1633 49.0611 12.4153C45.8373 8.46116 40.4048 5.23731 35.3108 4.25769C34.723 4.13301 34.064 4.00833 33.8681 3.97271C33.6187 3.91927 33.3159 3.54523 33.0131 2.92184C32.4432 1.76411 31.4635 0.731049 30.5908 0.35701C30.2524 0.214523 29.2549 0.0542221 28.3644 0.0185928C27.0463 -0.0348358 26.6367 0.0185928 26.0311 0.285767ZM30.0921 1.06947C31.3389 1.4435 32.7281 3.47399 32.7281 4.91671C32.7281 5.25512 32.6569 5.32637 32.4253 5.2195C31.606 4.8989 28.7028 4.41799 26.9038 4.31112L24.8912 4.18645V3.49181C24.8912 2.2272 25.6214 1.22977 26.8504 0.837914C27.4026 0.659805 29.1303 0.784485 30.0921 1.06947ZM51.1628 14.7486C52.3384 15.4788 53.2646 17.0818 53.2646 18.3999C53.2646 19.4685 52.6056 20.9825 51.7684 21.8375L51.1985 22.4252L50.6107 20.9291C49.8982 19.0767 49.453 18.2039 48.4733 16.6544C48.0459 15.9953 47.6896 15.3898 47.6896 15.3185C47.6896 15.2295 47.9924 14.9979 48.3665 14.7842C49.2214 14.2855 50.397 14.2676 51.1628 14.7486ZM38.214 22.7102C38.8909 23.672 39.8527 25.0613 40.3692 25.8094L41.3132 27.163L40.7432 28.0892C40.1911 28.9798 40.1555 28.9976 39.9061 28.6592C39.7636 28.4454 39.6033 28.2851 39.5321 28.2851C39.4608 28.2851 39.1758 28.6948 38.9087 29.1757C38.4456 29.995 38.41 30.1553 38.5703 30.9034C38.7306 31.6515 38.7127 31.7762 38.1962 32.6133C37.8934 33.112 37.6263 33.4326 37.5906 33.3436C37.5728 33.2545 37.1453 30.8322 36.6466 27.9824L35.7561 22.7636L36.237 21.8731C36.5219 21.3922 36.7891 20.9825 36.8604 20.9825C36.9316 20.9825 37.5372 21.7662 38.214 22.7102ZM22.3263 29.1223C23.4663 31.4556 24.3924 33.4148 24.4103 33.4682C24.4281 33.5395 23.7869 34.4479 22.9853 35.5165C18.7997 41.0915 16.4308 45.7402 15.558 50.0506C14.7209 54.1116 15.7183 59.6153 18.1585 64.5312C19.049 66.3123 20.9727 69.5896 21.1508 69.6074C21.2042 69.6074 21.507 68.7525 21.8276 67.6838C23.4484 62.4473 26.8148 55.4296 31.0895 48.4119L31.4635 47.8064L34.0818 53.1319C35.5067 56.0708 36.7001 58.4931 36.7179 58.5288C36.7535 58.5466 37.6441 58.2438 38.7127 57.8519C41.4022 56.8545 43.9493 55.5721 45.9798 54.2184L47.7075 53.0785L49.3639 53.1676C50.8779 53.2566 51.1094 53.2388 52 52.8291C53.0152 52.3482 53.7633 51.5645 54.4579 50.1931C55.0279 49.0888 55.0635 47.3433 54.5292 46.4349L54.1552 45.8115L54.6004 44.9209L55.0457 44.0482L55.4732 45.295C56.4172 48.1091 56.6665 49.8368 56.6665 53.6663C56.6487 57.4957 56.435 58.9562 55.4376 62.0376C53.1933 68.9484 47.9034 74.3096 41.5804 76.1085C35.097 77.9431 27.7232 76.3757 22.2551 71.9941C18.6216 69.0731 14.2044 63.7119 12.2451 59.829C11.3011 57.941 10.2146 54.6637 9.82279 52.5976C9.43094 50.3712 9.28845 45.9718 9.57343 43.6385C10.4462 36.0865 14.1153 29.2826 19.4409 25.2928C19.7259 25.0791 20.0465 24.901 20.1355 24.901C20.2068 24.901 21.2042 26.8068 22.3263 29.1223ZM34.2777 28.9798L34.6696 29.5676L34.2243 30.4403C33.779 31.3487 33.6365 31.4378 33.3337 31.135C33.0844 30.8856 32.7638 31.2596 32.6213 31.9899C32.4432 32.8627 32.9241 32.9161 33.9037 32.1324C34.5627 31.6337 34.7943 31.5446 35.0614 31.6871C35.5601 31.9365 35.8807 32.5242 36.0945 33.5929C36.5041 35.5878 36.237 37.2621 35.2395 38.8294C34.5983 39.8447 34.0462 39.9516 33.4584 39.2035C32.8884 38.491 32.835 38.0279 33.2447 37.2086C33.6365 36.4427 33.9215 36.3002 34.0818 36.7455C34.2243 37.1196 34.6339 37.0839 34.8655 36.6743C35.1327 36.1577 35.097 34.8753 34.7943 34.7685C34.6518 34.715 34.1887 34.9288 33.779 35.2316C32.7994 35.9262 32.3719 35.8728 31.9266 34.9644C31.4279 33.967 31.4101 30.9747 31.9088 30.0663C32.3541 29.2113 33.2803 28.2673 33.6009 28.3208C33.7612 28.3564 34.0462 28.6414 34.2777 28.9798ZM10.6777 31.0637C10.749 31.1171 10.4462 31.7049 10.0187 32.3818C9.07471 33.8601 8.34445 35.285 7.77449 36.8168C7.54294 37.4402 7.24015 37.9923 7.09766 38.0457C6.70581 38.2061 5.40558 37.4045 5.03154 36.7811C4.37253 35.6947 4.78219 33.2723 5.79743 32.1502C6.20709 31.6871 7.31139 31.135 8.20196 30.9568C8.8966 30.8144 10.3749 30.8856 10.6777 31.0637ZM28.0972 36.1043C28.0972 36.2468 27.741 36.9771 27.2957 37.743C26.4942 39.1322 26.4051 39.4707 26.6545 40.1297C26.7613 40.4147 26.9216 40.2544 27.545 39.1857C27.9725 38.4732 28.3466 37.9033 28.3822 37.9033C28.4356 37.9033 28.6137 38.2595 28.8097 38.7226L29.1659 39.5241L28.3644 40.9312C27.6341 42.2136 27.5807 42.3739 27.7766 42.926C27.8835 43.2467 28.026 43.5673 28.0794 43.6563C28.1506 43.7276 28.5781 43.122 29.0412 42.3205L29.8605 40.8599L30.0564 41.3765C30.5017 42.552 30.4839 42.837 29.7893 44.0838C28.115 47.0939 27.6875 47.7529 27.5629 47.5036C27.4916 47.3611 26.8148 45.4553 26.0667 43.2467L24.6952 39.2391L25.7995 37.2799C26.3873 36.1934 27.0107 35.1247 27.171 34.8753L27.456 34.4301L27.7766 35.1425C27.9369 35.5344 28.0972 35.9618 28.0972 36.1043ZM24.4637 45.9005C25.194 47.8954 25.7817 49.6409 25.7817 49.7656C25.7817 50.0506 25.0337 51.618 24.909 51.618C24.8021 51.618 21.8632 43.4604 21.8632 43.2288C21.8632 43.1576 22.077 42.7301 22.3441 42.267C22.7894 41.4477 22.825 41.4299 22.9853 41.8396C23.0744 42.0711 23.7334 43.9057 24.4637 45.9005ZM52.9084 45.8293C53.7455 46.4171 54.1017 47.1117 54.1017 48.1804C54.0839 50.3534 52.1068 52.4907 50.0764 52.5085C49.6845 52.5085 48.9542 52.3839 48.4377 52.2414L47.5293 51.9564L48.6336 50.5849C49.6667 49.3203 50.2367 48.4297 51.5013 46.2211C51.7684 45.758 52.0356 45.384 52.1068 45.384C52.1781 45.384 52.5343 45.5799 52.9084 45.8293ZM20.9549 52.366C21.4358 53.6663 21.9167 54.9665 22.0413 55.2693L22.2373 55.8036L22.9497 54.5034C23.3416 53.8088 23.7334 53.221 23.8225 53.221C23.9115 53.221 24.1075 53.6485 24.2678 54.1472L24.5706 55.0912L23.2881 57.3532C22.5757 58.6178 21.9523 59.6331 21.881 59.6331C21.8276 59.6331 21.1152 57.7451 20.2958 55.4296L18.8175 51.2439L19.3162 50.3534C19.8862 49.3025 19.7793 49.1778 20.9549 52.366ZM7.88135 59.0453C8.14852 59.918 8.82535 61.5211 9.41313 62.6432C10.5887 64.923 10.5887 64.923 9.12815 65.3327C7.77449 65.7067 6.36739 64.923 5.58369 63.3378C4.78219 61.7348 5.08498 59.7934 6.3852 58.315C6.77705 57.8697 7.1689 57.4957 7.25796 57.4957C7.3292 57.4957 7.61418 58.1903 7.88135 59.0453ZM27.2957 78.5843C28.0794 78.7446 29.4687 78.9227 30.377 78.994L32.0157 79.1008V79.8311C32.0157 81.3807 30.9114 82.4315 29.0056 82.6987C27.83 82.859 26.797 82.5384 25.942 81.7725C24.9446 80.8642 24.3568 79.7777 24.2321 78.6021L24.1253 77.6047L24.998 77.9431C25.4789 78.139 26.512 78.424 27.2957 78.5843Z"
        fill="white" />
    <path
        d="M37.4479 25.1683C37.5014 25.5601 37.6438 26.2726 37.7507 26.7535L37.9288 27.6262L38.2672 27.1987C38.7125 26.6288 38.6947 26.5754 37.9644 25.4354L37.3232 24.4558L37.4479 25.1683Z"
        fill="white" />
</svg>